<svg xmlns="http://www.w3.org/2000/svg" viewBox="0 0 647.23 199.57"><defs><style>.cls-1{fill:#dce8ff;opacity:0.79;}.cls-2{fill:#6377ee;}.cls-3{fill:#3d46c7;}.cls-4{fill:#013582;}.cls-5{fill:#95b9ff;}</style></defs><g id="Layer_2" data-name="Layer 2"><ellipse class="cls-1" cx="116.61" cy="180.83" rx="103" ry="10.37"/><path class="cls-2" d="M87.5,114.63l-18.69-6.72a4,4,0,0,1-2.42-5.13L93.83,26a4,4,0,0,0-2.47-5.16l-25.9-9a4,4,0,0,0-5.12,2.48L25.8,113.92A361.83,361.83,0,0,0,87.5,114.63Z"/><path class="cls-3" d="M108.83,122l-21.12-7.6a361.61,361.61,0,0,1-61.7-.72L21.34,127.1a4,4,0,0,0,2.48,5.11l81.8,28.38a4,4,0,0,0,5.34-3.73l.53-31.05A4,4,0,0,0,108.83,122Z"/><path class="cls-2" d="M174.13,93.79l-3,8.32c11-2,29.09-6.55,42.39-16l5.85-16.87a4,4,0,0,0-2.48-5.12l-81.8-28.38a4,4,0,0,0-5.34,3.73l-.53,31.06a4,4,0,0,0,2.65,3.85L171.7,88.65A4,4,0,0,1,174.13,93.79Z"/><path class="cls-3" d="M171,102.14l-24.46,68.44a4,4,0,0,0,2.47,5.15l25.9,9a4,4,0,0,0,5.12-2.48L213.41,86.1C200.12,95.6,182.05,100.13,171,102.14Z"/><path class="cls-4" d="M292.48,63.64a40.16,40.16,0,0,1,18.45,4A28.43,28.43,0,0,1,323,79q4.26,7.44,4.25,17.93a60.66,60.66,0,0,1-3.24,20.3,47.94,47.94,0,0,1-9.15,15.9,40.7,40.7,0,0,1-14.14,10.4,44.06,44.06,0,0,1-18.19,3.68H247.12l17.73-83.59ZM264.9,134.37h15.93a30.08,30.08,0,0,0,12.46-2.55,28.41,28.41,0,0,0,9.82-7.27,33.89,33.89,0,0,0,6.43-11.24,43.5,43.5,0,0,0,2.28-14.45,26.59,26.59,0,0,0-2.54-12.22,17,17,0,0,0-7.53-7.56,26.67,26.67,0,0,0-12.34-2.58H277.3Z"/><path class="cls-4" d="M339.2,146a17.21,17.21,0,0,1-6.81-6,15.59,15.59,0,0,1-2.49-8.77q0-9.27,7-14.51T356,111l16.74-.69.81-3.77c.08-.5.13-.94.17-1.33a11.73,11.73,0,0,0,.06-1.22A7.08,7.08,0,0,0,371,98.13c-1.85-1.44-4.48-2.17-7.88-2.17a16.42,16.42,0,0,0-6,1,10.56,10.56,0,0,0-4.17,2.81,9.93,9.93,0,0,0-2.23,4.28H336.91a21.7,21.7,0,0,1,4.69-10.25A24.64,24.64,0,0,1,351,86.93a32.83,32.83,0,0,1,13.12-2.5,31,31,0,0,1,12.4,2.29A19.86,19.86,0,0,1,384.79,93a15.42,15.42,0,0,1,3,9.41,24.93,24.93,0,0,1-.15,2.75c-.09.91-.2,1.71-.31,2.41l-8.4,39.62H365.18l1.62-7.42h-.29a19,19,0,0,1-4.61,4.46,21.52,21.52,0,0,1-6.08,2.93,24.61,24.61,0,0,1-7.15,1A20.7,20.7,0,0,1,339.2,146Zm21.69-10.31a16,16,0,0,0,5.5-4.08,13.56,13.56,0,0,0,3-6l1.27-5.74-14.37.64q-5.85.18-9.15,2.52a7.35,7.35,0,0,0-3.3,6.29,6.77,6.77,0,0,0,2.81,5.7,11.67,11.67,0,0,0,7.21,2.12A16.78,16.78,0,0,0,360.89,135.73Z"/><path class="cls-4" d="M460.79,92.28c0-.25-.05-.6-.09-1.07a15.85,15.85,0,0,0-2.93-8.4,17.1,17.1,0,0,0-6.71-5.47,21.74,21.74,0,0,0-9.36-1.94,25,25,0,0,0-11.56,2.69,26.82,26.82,0,0,0-9,7.62,36.22,36.22,0,0,0-5.85,11.61A49.32,49.32,0,0,0,413.2,112a29.33,29.33,0,0,0,2.46,12.51,18.16,18.16,0,0,0,7.07,8.08,20.5,20.5,0,0,0,10.92,2.81,24.94,24.94,0,0,0,9.47-1.76,21.1,21.1,0,0,0,7.53-5.22,24,24,0,0,0,5-8.14h14.77a35.94,35.94,0,0,1-7.32,15,36.51,36.51,0,0,1-13,9.91,40.45,40.45,0,0,1-17,3.53,37.54,37.54,0,0,1-18.59-4.43,30.54,30.54,0,0,1-12.26-12.49,39.58,39.58,0,0,1-4.31-18.94,61,61,0,0,1,3.24-20.3,47.61,47.61,0,0,1,9.21-16A42,42,0,0,1,424.47,66a43.24,43.24,0,0,1,18.16-3.73,37.92,37.92,0,0,1,16.68,3.53,28.89,28.89,0,0,1,11.61,9.91,28.08,28.08,0,0,1,4.67,14.94,10.63,10.63,0,0,1,0,1.34c0,.34-.05.67-.09,1H460.76A2.38,2.38,0,0,0,460.79,92.28Z"/><path class="cls-4" d="M531.14,147.23l7.76-36.15H498.76L491,147.23H475.76l17.79-83.59h15.23l-7.41,34.7h40.14l7.42-34.7h15.29l-17.79,83.59Z"/><path class="cls-4" d="M574.82,85.71h14.25L576,147.23H561.73ZM580,74.21a7.69,7.69,0,0,1-2.31-5.59A7.78,7.78,0,0,1,580,63a7.63,7.63,0,0,1,5.62-2.34A7.51,7.51,0,0,1,591.24,63a7.8,7.8,0,0,1,2.29,5.65,7.71,7.71,0,0,1-2.29,5.59,7.52,7.52,0,0,1-5.59,2.35A7.64,7.64,0,0,1,580,74.21Z"/><path class="cls-4" d="M601.73,144.62q-4.79-3.24-4.78-9.85c0-.77,0-1.66.14-2.66a26.67,26.67,0,0,1,.5-3.13L604.3,97.7h-9.09l2.38-11.35h9.15l3.13-15.07h14.19l-3.25,15.07h12.81L631.3,97.7H618.55l-6.19,28.56a21.68,21.68,0,0,0-.44,2.34,17.66,17.66,0,0,0-.14,2.06,5,5,0,0,0,2,4.49,10.13,10.13,0,0,0,5.68,1.36q1,0,1.74,0a12.63,12.63,0,0,0,1.3-.11l1.13-.15-2.31,10.95c-1,.19-2.09.36-3.36.49a34.57,34.57,0,0,1-3.77.21Q606.5,147.87,601.73,144.62Z"/><path class="cls-5" d="M128.83,176.42l26.4-80.22a1.16,1.16,0,0,0-.68-1.44L114.26,79.08a1.15,1.15,0,0,1-.73-1.06l-1-62.72a1.16,1.16,0,0,0-2.25-.36l-28,80.68A1.14,1.14,0,0,0,83,97.08l39.12,14.43a1.13,1.13,0,0,1,.75,1l3.68,63.61A1.15,1.15,0,0,0,128.83,176.42Z"/></g></svg>